<svg xmlns="http://www.w3.org/2000/svg" version="1.1" xmlns:xlink="http://www.w3.org/1999/xlink" width="1366" height="1366"><svg id="SvgjsSvg1011" xmlns="http://www.w3.org/2000/svg" version="1.1" viewBox="0 0 1366 1366">
  <!-- Generator: Adobe Illustrator 29.6.0, SVG Export Plug-In . SVG Version: 2.1.1 Build 207)  -->
  <defs>
    <style>
      .st0 {
        fill: #fff;
      }

      .st1 {
        fill: #172554;
      }
    </style>
  </defs>
  <rect class="st1" x="-1" y="-1" width="1368" height="1368" rx="374.5" ry="374.5"></rect>
  <path class="st0" d="M0,500.2c379-158.4,858.9-198,992.6,45.7C821.2,347.3,427.4,372,0,570.8v-70.6h0Z"></path>
  <path class="st0" d="M569.4,564c78.7-5.1,151.9,18.9,223.7,51,45.1,20,66,30.8,89.8,30.7,24.8-2.1,42.2-21,45.8-46.1,7.1-68.7-231.9-59.4-359.2-35.6h0Z"></path>
  <path class="st0" d="M794.8,783.4c164.2-33.1,240.2-97.2,257.9-181.7,224.3,62.5,297.1,187.9,159.7,400.5,50.7-200.2-136.3-248.6-417.6-218.8h0Z"></path>
</svg><style>@media (prefers-color-scheme: light) { :root { filter: none; } }
@media (prefers-color-scheme: dark) { :root { filter: none; } }
</style></svg>