<?xml version="1.0" encoding="UTF-8"?>
<svg id="Layer_1" xmlns="http://www.w3.org/2000/svg" version="1.1" viewBox="0 0 458 169.3">
  <!-- Generator: Adobe Illustrator 29.5.1, SVG Export Plug-In . SVG Version: 2.1.0 Build 141)  -->
  <defs>
    <style>
      .st0, .st1, .st2, .st3, .st4, .st5, .st6 {
        fill: #fff;
      }

      .st0, .st7 {
        fill-rule: evenodd;
      }

      .st8 {
        fill: #898989;
      }

      .st8, .st7 {
        display: none;
      }

      .st1 {
        font-size: 69.8px;
      }

      .st1, .st9, .st2, .st3, .st4, .st5, .st6 {
        isolation: isolate;
      }

      .st1, .st2 {
        font-family: PlantagenetCherokee, 'Plantagenet Cherokee';
      }

      .st7 {
        fill: #58595b;
      }

      .st2 {
        font-size: 99.7px;
      }

      .st3 {
        letter-spacing: .7em;
      }

      .st3, .st4, .st5, .st6 {
        font-family: TrebuchetMS, 'Trebuchet MS';
        font-size: 26px;
      }

      .st4 {
        letter-spacing: .7em;
      }

      .st5 {
        letter-spacing: .7em;
      }
    </style>
  </defs>
  <rect class="st8" x="-25.2" y="0" width="483.1" height="169.7"/>
  <path class="st7" d="M231.5,106.3c-27.3,2.9-44.8,10.2-81.5,27.6-36.6,17.3-67.9,15.8-67.9,15.8,50.6,24.7,89.6-20.9,127.8-34.3,28.5-10,48.7-4.6,48.7-4.6,0,0-12.9-6-27.1-4.5Z"/>
  <path class="st7" d="M245,116.7c-12.1,1.2-23.9,8.1-42.9,19.6-19,11.5-36.2,12.5-36.2,12.5,29,10.6,47.7-16.4,67.7-25.9,15-7.1,33.2.2,33.2.2,0,0-9.8-7.6-21.9-6.4h0Z"/>
  <g>
    <path class="st0" d="M370.3,71.4c96-12.1,75.1,37.8,75.1,37.8,39.6-57.5-27.1-69.7-27.1-69.7-3.7,16.7-19.7,27.3-48,31.9ZM333.8,33.4c29.7-1.9,50.5,17.8,58.2,13.3s6.8-12.7-2.1-14.3c-30.5-5.5-56.1.9-56.1.9h0Z"/>
    <path class="st0" d="M298,3.7c-24.2,4.2-115.2,30.2-197.1,72.1,0,0,60-14.8,168-53.8s139.5,8.6,139.5,8.6c0,0-15-43.3-110.4-26.9Z"/>
    <g class="st9">
      <text class="st5" transform="translate(83.3 162.5) scale(1.1 1)"><tspan x="0" y="0">PUB</tspan></text>
      <text class="st3" transform="translate(198.9 162.5) scale(1.1 1)"><tspan x="0" y="0">L</tspan></text>
      <text class="st5" transform="translate(234.9 162.5) scale(1.1 1)"><tspan x="0" y="0">I</tspan></text>
      <text class="st3" transform="translate(264.4 162.5) scale(1.1 1)"><tspan x="0" y="0">S</tspan></text>
      <text class="st4" transform="translate(299.7 162.5) scale(1.1 1)"><tspan x="0" y="0">HIN</tspan></text>
      <text class="st6" transform="translate(409.4 162.5) scale(1.1 1)"><tspan x="0" y="0">G</tspan></text>
    </g>
    <g class="st9">
      <text class="st2" transform="translate(0 131.8)"><tspan x="0" y="0">B</tspan></text>
    </g>
    <g class="st9">
      <text class="st1" transform="translate(60.8 131.8)"><tspan x="0" y="0">LUEWATER</tspan></text>
    </g>
  </g>
</svg>